<svg width="60" height="30" viewBox="0 0 60 30" fill="none" xmlns="http://www.w3.org/2000/svg">
<path d="M15 0H45C53.2843 0 60 6.71573 60 15C60 23.2843 53.2843 30 45 30H15V0Z" fill="#DDDFEB"/>
<circle cx="15" cy="15" r="15" fill="url(#paint0_linear)"/>

<path d="M47.9611 15.1834C47.9488 15.2141 47.9294 15.2406 47.9109 15.2688C47.8972 15.2896 47.8905 15.3133 47.8734 15.3324C47.8675 15.339 47.859 15.3412 47.8527 15.3473C47.8461 15.3541 47.8434 15.3631 47.8363 15.3695L42.8363 19.8695C42.7406 19.9555 42.6209 19.9975 42.5018 19.9975C42.3651 19.9975 42.2288 19.9418 42.1302 19.8324C41.9456 19.6264 41.9622 19.3109 42.1673 19.1254L46.7539 14.9975L42.1673 10.8695C41.9622 10.684 41.9456 10.3686 42.1302 10.1625C42.3153 9.9584 42.6312 9.9418 42.8363 10.1254L47.8363 14.6254C47.8431 14.6316 47.8456 14.6402 47.852 14.6466C47.8585 14.6531 47.8671 14.6556 47.8734 14.6625C47.8905 14.6817 47.8972 14.7053 47.9109 14.7262C47.9294 14.7543 47.9488 14.7808 47.9611 14.8115C47.9732 14.8416 47.978 14.872 47.984 14.9035C47.9901 14.9351 47.9973 14.9654 47.9973 14.9975C47.9973 15.0296 47.9901 15.0598 47.984 15.0915C47.978 15.1229 47.9732 15.1533 47.9611 15.1834Z" fill="#404151"/>
<defs>
<linearGradient id="paint0_linear" x1="15" y1="0" x2="15" y2="30" gradientUnits="userSpaceOnUse">
<stop stop-color="#FF702F"/>
<stop offset="1" stop-color="#F54428"/>
</linearGradient>
</defs>
</svg>
