<svg width="6" height="11" viewBox="0 0 6 11" fill="none" xmlns="http://www.w3.org/2000/svg">
<path d="M0.0359888 5.81189C0.0483179 5.78125 0.067666 5.7547 0.0862207 5.72657C0.0998926 5.70575 0.106545 5.68207 0.123696 5.66291C0.129617 5.65632 0.138101 5.65418 0.144326 5.64801C0.150979 5.64124 0.153665 5.63227 0.160806 5.6258L5.16081 1.1258C5.25651 1.03986 5.37614 0.997868 5.49528 0.997868C5.632 0.997869 5.76823 1.05353 5.86686 1.16291C6.05143 1.36896 6.03483 1.68439 5.82975 1.86994L1.24314 5.99787L5.82975 10.1258C6.03483 10.3113 6.05143 10.6268 5.86686 10.8328C5.6818 11.0369 5.36588 11.0535 5.16081 10.8699L0.160806 6.36994C0.15397 6.36377 0.151467 6.35517 0.145059 6.3487C0.138589 6.34223 0.129922 6.33973 0.123696 6.33283C0.106545 6.31366 0.0998926 6.28998 0.0862207 6.26917C0.067666 6.24103 0.0483179 6.21448 0.0359888 6.18384C0.0238428 6.15369 0.019082 6.1233 0.0130395 6.09186C0.00693603 6.06025 -0.000266118 6.02997 -0.00020508 5.99787C-0.000266112 5.96576 0.00693604 5.93549 0.0130396 5.90387C0.019082 5.87244 0.0238428 5.84205 0.0359888 5.81189Z" fill="#404151"/>
</svg>
