<?xml version="1.0" encoding="utf-8"?>
<!-- Generator: Adobe Illustrator 23.0.2, SVG Export Plug-In . SVG Version: 6.00 Build 0)  -->
<svg version="1.1" id="Слой_1" xmlns="http://www.w3.org/2000/svg" xmlns:xlink="http://www.w3.org/1999/xlink" x="0px" y="0px"
	 viewBox="0 0 16 16" style="enable-background:new 0 0 16 16;" xml:space="preserve">
<style type="text/css">
	.st0{fill:url(#SVGID_1_);}
	.st1{fill:#FFFFFF;}
</style>
<linearGradient id="SVGID_1_" gradientUnits="userSpaceOnUse" x1="8" y1="16" x2="8" y2="0" gradientTransform="matrix(1 0 0 -1 0 16)">
	<stop  offset="0" style="stop-color:#FF702F"/>
	<stop  offset="1" style="stop-color:#F54428"/>
</linearGradient>
<circle class="st0" cx="8" cy="8" r="8"/>
<g>
	<path class="st1" d="M8.08,4.05c-0.34,0-0.63-0.1-0.85-0.3C7.01,3.55,6.9,3.29,6.9,2.97c0-0.32,0.11-0.59,0.33-0.79
		c0.22-0.21,0.51-0.31,0.85-0.31c0.34,0,0.63,0.1,0.85,0.31c0.22,0.21,0.33,0.47,0.33,0.79c0,0.32-0.11,0.58-0.33,0.78
		S8.43,4.05,8.08,4.05z M7.11,13.68V5.49h1.92v8.19H7.11z"/>
</g>
</svg>
