<svg width="24" height="24" viewBox="0 0 24 24" fill="none" xmlns="http://www.w3.org/2000/svg">
<path d="M24 14.416V9.58405L21.1648 8.50116C21.0989 8.3288 21.0312 8.15784 20.9561 7.9903L22.1937 5.22302L18.777 1.80634L16.0098 3.04401C15.8422 2.96887 15.6713 2.90106 15.4988 2.83521L14.416 0H9.58411L8.50122 2.83521C8.32886 2.90106 8.15796 2.96887 7.9903 3.04401L5.22314 1.80634L1.80646 5.22302L3.04401 7.99017C2.96887 8.15784 2.90106 8.3288 2.83521 8.50122L0 9.58405V14.416L2.83521 15.4988C2.90106 15.6712 2.96893 15.8422 3.04401 16.0098L1.80646 18.7769L5.22314 22.1937L7.9903 20.956C8.15784 21.0312 8.32886 21.0989 8.50128 21.1648L9.58411 24H14.416L15.4988 21.1648C15.6712 21.0989 15.8422 21.0311 16.0098 20.956L18.777 22.1937L22.1937 18.7769L20.9561 16.0098C21.0312 15.8422 21.0989 15.6713 21.1648 15.4988L24 14.416ZM20.0432 16.418L20.9997 18.5566L18.5568 20.9997L16.4181 20.0432L16.0095 19.8604L15.601 20.0434C15.4504 20.1108 15.2968 20.1715 15.142 20.2306L14.7242 20.3902L14.5646 20.808L13.7275 23H10.2726L9.43549 20.808L9.27594 20.3903L8.85828 20.2307C8.70355 20.1716 8.54993 20.111 8.39954 20.0436L7.99084 19.8603L7.58197 20.0432L5.44336 20.9997L3.00043 18.5567L3.95691 16.4181L4.13965 16.0095L3.95667 15.601C3.88916 15.4504 3.82855 15.2968 3.76941 15.142L3.6098 14.7242L3.19202 14.5646L1 13.7275V10.2726L3.19202 9.43542L3.60986 9.27582L3.76941 8.85797C3.82849 8.70325 3.88904 8.54974 3.95648 8.39929L4.13971 7.99072L3.95691 7.58191L3.00043 5.4433L5.44336 3.00031L7.58197 3.95685L7.99078 4.13971L8.39935 3.95648C8.54987 3.88904 8.70337 3.82849 8.85809 3.76941L9.27588 3.6098L9.43542 3.19202L10.2726 1H13.7275L14.5647 3.19202L14.7242 3.60986L15.1422 3.76941C15.2968 3.82849 15.4503 3.88904 15.6005 3.95642L16.0092 4.13977L16.4181 3.95685L18.5568 3.00031L20.9997 5.4433L20.0432 7.58203L19.8604 7.99072L20.0435 8.39923C20.111 8.54968 20.1715 8.70325 20.2307 8.85803L20.3902 9.27582L20.808 9.43536L23 10.2725V13.7275L20.808 14.5647L20.3902 14.7242L20.2307 15.142C20.1716 15.2967 20.111 15.4503 20.0436 15.6006L19.8604 16.0092L20.0432 16.418ZM12.0001 5C8.13403 5 5.00006 8.13403 5.00006 12C5.00006 15.866 8.13403 19 12.0001 19C15.866 19 19.0001 15.866 19.0001 12C19.0001 8.13403 15.866 5 12.0001 5ZM12.0001 18C8.69165 18 6.00006 15.3084 6.00006 12C6.00006 8.69159 8.69165 6 12.0001 6C15.3085 6 18.0001 8.69159 18.0001 12C18.0001 15.3084 15.3085 18 12.0001 18ZM12.0001 8C9.79089 8 8.00006 9.79089 8.00006 12C8.00006 14.2092 9.79089 16 12.0001 16C14.2092 16 16.0001 14.2092 16.0001 12C16.0001 9.79089 14.2092 8 12.0001 8ZM12.0001 15C10.3458 15 9.00006 13.6542 9.00006 12C9.00006 10.3458 10.3458 9 12.0001 9C13.6542 9 15.0001 10.3458 15.0001 12C15.0001 13.6542 13.6542 15 12.0001 15Z" fill="#7B7C8F"/>
</svg>
