<svg width="130" height="70" viewBox="0 0 130 70" fill="none" xmlns="http://www.w3.org/2000/svg">
<path d="M83.4354 29.7734L87.6815 18.1072L96.1387 21.1854C97.6956 21.7521 99.4171 20.9496 99.9839 19.3924C100.551 17.8356 99.7477 16.1139 98.1909 15.5473L89.7336 12.4691L78.4573 8.36485L70.0001 5.28667C68.4429 4.7199 66.7216 5.52286 66.155 7.07968C65.5882 8.63685 66.3908 10.3581 67.948 10.9248L76.4052 14.003L72.1591 25.6692C48.9029 20.3531 24.7872 33.0225 16.4168 56.0201C7.34995 80.931 20.1938 108.475 45.1051 117.542C70.016 126.609 97.5604 113.765 106.627 88.854C114.998 65.8564 104.667 40.6498 83.4354 29.7734ZM47.1572 111.904C25.395 103.983 14.1342 79.8343 22.0549 58.0722C29.9757 36.31 54.1247 25.0492 75.8869 32.9699C97.649 40.8907 108.91 65.0397 100.989 86.8019C93.0683 108.564 68.9193 119.825 47.1572 111.904ZM41.7912 78.8005L43.9649 83.4615L29.9819 89.9816L27.8084 85.3207L41.7912 78.8005ZM48.6384 38.7231L55.1589 52.7063L50.4977 54.8796L43.9775 40.8965L48.6384 38.7231ZM41.3121 67.8174L26.8137 62.5404L28.5726 57.7078L43.071 62.9848L41.3121 67.8174ZM81.2532 66.0737L79.0794 61.4127L93.0627 54.8922L95.2361 59.5531L81.2532 66.0737ZM96.2305 82.3333L94.4716 87.1659L79.9736 81.889L81.7325 77.0565L96.2305 82.3333ZM72.5467 89.9946L79.067 103.977L74.4061 106.151L67.8855 92.1679L72.5467 89.9946ZM71.4186 37.7287L76.2512 39.4876L70.9744 53.9856L66.1418 52.2267L71.4186 37.7287ZM52.0702 90.8882L56.9027 92.6471L51.6257 107.145L46.7932 105.387L52.0702 90.8882Z" fill="#404151"/>
</svg>
