<svg width="16" height="16" viewBox="0 0 16 16" fill="none" xmlns="http://www.w3.org/2000/svg">
<path d="M15.8535 4.35059L11.6494 0.146484C11.5557 0.0527344 11.4287 0 11.2959 0H2.52832C1.13379 0 0 1.13379 0 2.52832V13.4717C0 14.8662 1.13379 16 2.52832 16H13.4707C14.8652 16 16 14.8662 16 13.4717V4.7041C16 4.57129 15.9473 4.44434 15.8535 4.35059ZM15 13.4717C15 14.3145 14.3135 15 13.4707 15H2.52832C1.68555 15 1 14.3145 1 13.4717V2.52832C1 1.68555 1.68555 1 2.52832 1H11.0889L15 4.91113V13.4717ZM8.5 3H3.5C3.22363 3 3 3.22363 3 3.5V6.5C3 6.77637 3.22363 7 3.5 7H8.5C8.77637 7 9 6.77637 9 6.5V3.5C9 3.22363 8.77637 3 8.5 3ZM8 6H4V4H8V6Z" fill="white"/>
</svg>
