<svg xmlns="http://www.w3.org/2000/svg" width="256" height="256"><path fill-opacity=".016" d="M0 128.004v128.004l128.25-.254 128.25-.254.254-127.75L257.008 0H0v128.004m.485.496c0 70.4.119 99.053.265 63.672.146-35.38.146-92.98 0-128C.604 29.153.485 58.1.485 128.5" fill="#1976D2" fill-rule="evenodd"/><path fill-opacity=".366" d="M117.5.637C100.161 2.485 85.104 6.912 70 14.605 17.975 41.103-9.476 99.39 3.411 156c11.171 49.073 49.28 86.605 98.589 97.096 13.637 2.901 36.21 3.17 49.21.586 39.241-7.801 72.757-32.934 90.256-67.682 7.793-15.474 13.393-35.255 13.634-48.157.078-4.179.274-4.798.9-2.843.505 1.578.789-1.371.769-8-.022-7.07-.273-9.357-.769-7-.679 3.228-.747 3.085-.868-1.843-.073-2.939-1.039-9.794-2.148-15.234-10.242-50.26-49.694-89.754-99.75-99.856-9.764-1.971-28.25-3.228-35.734-2.43m-10.526 3.837c-45.269 7.63-84.577 41.666-98.282 85.1C4.523 102.783 3 113.063 3 127.979c0 26.582 6.255 47.697 20.444 69.011 17.685 26.564 41.636 43.659 73.7 52.601 12.704 3.543 38.652 4.514 52.356 1.958 74.732-13.937 120.424-88.947 97.904-160.72-6.265-19.966-15.769-35.451-31.275-50.958-19.375-19.374-41.244-30.824-67.51-35.343-10.587-1.821-31.003-1.848-41.645-.054m5.526 6.57c-35.104 5.52-63.971 23.813-83.213 52.733-21.992 33.052-25.372 76.399-8.794 112.777 11.638 25.538 34.671 48.242 60.406 59.543 39.735 17.45 86.22 11.281 120.313-15.965 38.418-30.703 53.916-81.837 38.813-128.056A119.012 119.012 0 00153 12.901c-9.938-2.238-31.724-3.237-40.5-1.857m-1 28.374C93.568 42.934 77.956 51.186 64.992 64c-13.633 13.474-21.808 28.495-25.539 46.927-2.261 11.168-1.567 30.355 1.48 40.899 8.958 31.006 32.3 54.402 63.067 63.211 10.745 3.076 29.863 3.78 41.058 1.511 44.681-9.053 75.272-48.629 72.638-93.974-2.2-37.899-28.163-70.173-65.245-81.105-11.082-3.267-29.934-4.211-40.951-2.051M75 107.5V140h73V153.975l-36.25.263-36.25.262-.279 13.25-.279 13.25h106.076l-.259-52.75-.259-52.75h-32l-.273 17.75-.273 17.75H106V75H75v32.5M.37 128c0 5.775.165 8.137.367 5.25.202-2.887.202-7.612 0-10.5S.37 122.225.37 128" fill="#1976D2" fill-rule="evenodd"/><path fill-opacity=".409" d="M107.597 12.607c-30.222 5.457-58.001 23.216-75.915 48.531C25.104 70.432 17.59 86.696 14.419 98.5c-3.896 14.5-4.53 37.467-1.45 52.5 4.766 23.258 15.17 42.586 32.146 59.713 17.067 17.22 38.821 28.65 62.331 32.75 11.143 1.943 29.786 1.974 40.718.068 43.428-7.574 79.921-40.287 92.197-82.648C262.187 85.565 205.427 10.485 127.119 11.09c-6.39.049-15.175.732-19.522 1.517M118.5 37.674C86.562 41.66 60.484 60.063 46.478 88.5c-6.984 14.18-8.797 22.323-8.797 39.5 0 16.881 1.772 25.129 8.357 38.904 11.649 24.367 33.075 42.109 59.462 49.237 11.799 3.187 32.737 3.204 44.433.035 33.89-9.181 58.363-34.462 66.738-68.939 2.22-9.136 2.205-29.394-.027-38.59-7.691-31.688-29.632-56.076-59.644-66.294-13.188-4.49-26.778-6.142-38.5-4.679M76 107.5V139h73v16H76v26h104V76h-31v35h-44V76H76v31.5" fill="#1976D2" fill-rule="evenodd"/><path fill-opacity=".383" d="M171.75 85.345L164 94.302V124l-36.25-.048-36.25-.047 6.774-6.288 6.775-6.289-.275-17.414L104.5 76.5l-7.28 9-7.28 9 .129 14.877.128 14.878-7.324 7.372L75.55 139H149.453l7.273-7.225L164 124.55V168H90.723l-7.029 5.75-7.028 5.75 51.324.259c28.229.143 51.483.101 51.677-.092.193-.194.235-23.51.092-51.815l-.259-51.464-7.75 8.957" fill="#1976D2" fill-rule="evenodd"/></svg>