<svg width="6" height="10" viewBox="0 0 6 10" fill="none" xmlns="http://www.w3.org/2000/svg">
<path d="M5.95913 5.18557C5.9468 5.21621 5.92745 5.24276 5.9089 5.2709C5.89523 5.29171 5.88857 5.31539 5.87142 5.33456C5.8655 5.34115 5.85702 5.34329 5.85079 5.34945C5.84414 5.35623 5.84145 5.3652 5.83431 5.37167L0.834312 9.87167C0.738609 9.95761 0.61898 9.9996 0.499839 9.9996C0.363121 9.9996 0.22689 9.94393 0.128257 9.83456C-0.0563129 9.6285 -0.0397114 9.31308 0.165367 9.12753L4.75198 4.9996L0.165366 0.871669C-0.0397117 0.686122 -0.0563133 0.370692 0.128257 0.164638C0.313316 -0.0394641 0.629234 -0.0560656 0.834312 0.127528L5.83431 4.62753C5.84115 4.63369 5.84365 4.6423 5.85006 4.64877C5.85653 4.65524 5.8652 4.65774 5.87142 4.66464C5.88857 4.6838 5.89523 4.70748 5.9089 4.7283C5.92745 4.75643 5.9468 4.78298 5.95913 4.81362C5.97127 4.84378 5.97604 4.87417 5.98208 4.9056C5.98818 4.93722 5.99538 4.96749 5.99532 4.9996C5.99538 5.0317 5.98818 5.06198 5.98208 5.09359C5.97604 5.12503 5.97127 5.15542 5.95913 5.18557Z" fill="url(#paint0_linear)"/>
<defs>
<linearGradient id="paint0_linear" x1="2.99766" y1="0" x2="2.99766" y2="9.9996" gradientUnits="userSpaceOnUse">
<stop stop-color="#FF702F"/>
<stop offset="1" stop-color="#F54428"/>
</linearGradient>
</defs>
</svg>
