<?xml version="1.0" encoding="utf-8"?>
<!-- Generator: Adobe Illustrator 23.0.2, SVG Export Plug-In . SVG Version: 6.00 Build 0)  -->
<svg version="1.1" id="Слой_1" xmlns="http://www.w3.org/2000/svg" xmlns:xlink="http://www.w3.org/1999/xlink" x="0px" y="0px"
	 viewBox="0 0 16 16" style="enable-background:new 0 0 16 16;" xml:space="preserve">
<style type="text/css">
	.st0{fill:url(#SVGID_1_);}
	.st1{fill:#FFFFFF;}
</style>
<linearGradient id="SVGID_1_" gradientUnits="userSpaceOnUse" x1="8" y1="776" x2="8" y2="792" gradientTransform="matrix(1 0 0 1 0 -776)">
	<stop  offset="0" style="stop-color:#FF702F"/>
	<stop  offset="1" style="stop-color:#F54428"/>
</linearGradient>
<circle class="st0" cx="8" cy="8" r="8"/>
<text transform="matrix(1 0 0 1 306 396)" style="font-family:'MyriadPro-Regular'; font-size:12px;">Source Sans Pro</text>
<g>
	<path class="st1" d="M8,12.1c-0.3,0-0.5-0.1-0.6-0.3s-0.3-0.4-0.3-0.7s0.1-0.5,0.3-0.7s0.4-0.3,0.6-0.3c0.3,0,0.5,0.1,0.6,0.3
		c0.2,0.2,0.3,0.4,0.3,0.7s-0.1,0.5-0.3,0.7C8.5,12,8.3,12.1,8,12.1z M7.5,9.4L7.3,5.3l0-1.4h1.4l0,1.4L8.5,9.4H7.5z"/>
</g>
</svg>
