<svg width="24" height="22" viewBox="0 0 24 22" fill="none" xmlns="http://www.w3.org/2000/svg">
<path d="M16.0001 17.0001H20.0001V13.0001H16.0001V17.0001ZM17.0001 14.0001H19.0001V16.0001H17.0001V14.0001ZM17.0001 3H7.02332V2H17.0001V3ZM20.0001 7H16.0001V11H20.0001V7ZM19.0001 10H17.0001V8H19.0001V10ZM4 17.0001H8V13.0001H4V17.0001ZM5 14.0001H7V16.0001H5V14.0001ZM24 2V22H0V2H4.02332V3H1V21H23V3H20.0001V2H24ZM10.0001 17.0001H14.0001V13.0001H10.0001V17.0001ZM11.0001 14.0001H13.0001V16.0001H11.0001V14.0001ZM8 7H4V11H8V7ZM7 10H5V8H7V10ZM14.0001 7H10.0001V11H14.0001V7ZM13.0001 10H11.0001V8H13.0001V10ZM6.00006 4H5.00006V0H6.00006V4ZM19.0001 4H18.0001V0H19.0001V4Z" fill="#7B7C8F"/>
</svg>
