<svg width="30" height="27" viewBox="0 0 30 27" fill="none" xmlns="http://www.w3.org/2000/svg">
<g filter="url(#filter0_d)">
<path d="M3 14V15V18H9V15V14V2H3V14ZM8 17H4V15H8V17ZM8 3V14H4V3H8ZM5 6.00006C5 5.44775 5.44769 5.00006 6 5.00006C6.55231 5.00006 7 5.44775 7 6.00006C7 6.55231 6.55231 7.00006 6 7.00006C5.44769 7.00006 5 6.55231 5 6.00006ZM21.0001 2V14V15V18H27.0001V15V14V2H21.0001ZM26.0001 17H22.0001V15H26.0001V17ZM22.0001 14V3H26.0001V14H22.0001ZM25.0001 6.00006C25.0001 6.55231 24.5524 7.00006 24.0001 7.00006C23.4478 7.00006 23.0001 6.55231 23.0001 6.00006C23.0001 5.44775 23.4478 5.00006 24.0001 5.00006C24.5524 5.00006 25.0001 5.44775 25.0001 6.00006ZM11.0001 12L11 13L11.0001 16L11 17L11.0001 20H19.0001V0H11.0001V12ZM12.0001 13H18.0001V16H12.0001V13ZM12.0001 19V17H18.0001V19H12.0001ZM18.0001 1V12H12.0001V1H18.0001ZM14 4C14 3.44775 14.4478 3 15 3C15.5522 3 16 3.44775 16 4C16 4.55231 15.5523 5 15.0001 5C14.4478 5 14 4.55231 14 4Z" fill="url(#paint0_linear)"/>
</g>
<defs>
<filter id="filter0_d" x="0" y="0" width="30.0001" height="27" filterUnits="userSpaceOnUse" color-interpolation-filters="sRGB">
<feFlood flood-opacity="0" result="BackgroundImageFix"/>
<feColorMatrix in="SourceAlpha" type="matrix" values="0 0 0 0 0 0 0 0 0 0 0 0 0 0 0 0 0 0 127 0"/>
<feOffset dy="4"/>
<feGaussianBlur stdDeviation="1.5"/>
<feColorMatrix type="matrix" values="0 0 0 0 0.157986 0 0 0 0 0.161438 0 0 0 0 0.216667 0 0 0 1 0"/>
<feBlend mode="normal" in2="BackgroundImageFix" result="effect1_dropShadow"/>
<feBlend mode="normal" in="SourceGraphic" in2="effect1_dropShadow" result="shape"/>
</filter>
<linearGradient id="paint0_linear" x1="15" y1="0" x2="15" y2="20" gradientUnits="userSpaceOnUse">
<stop stop-color="#FF702F"/>
<stop offset="1" stop-color="#F54428"/>
</linearGradient>
</defs>
</svg>
