<svg width="30" height="27" viewBox="0 0 30 27" fill="none" xmlns="http://www.w3.org/2000/svg">
<g filter="url(#filter0_d)">
<path d="M27 0H3V20H7.00006V20.0001H11.0001V20H13.0001V20.0001H17.0001V20H19.0001V20.0001H23.0001V20H27V0ZM10.0001 19H8.00006V15.0001H10.0001V19ZM16.0001 19H14.0001V8.00006H16.0001V19ZM22.0001 19H20.0001V12.0001H22.0001V19ZM26 19H23.0001V11.0001H19.0001V19H17.0001V7.00006H13.0001V19H11.0001V14.0001H7.00006V19H4V1H26V19ZM11.0001 12.0001H7.00006V11.0001H11.0001V12.0001ZM17 5.00006H13V4.00006H17V5.00006ZM23.0001 9H19.0001V8H23.0001V9Z" fill="url(#paint0_linear)"/>
</g>
<defs>
<filter id="filter0_d" x="0" y="0" width="30" height="27.0001" filterUnits="userSpaceOnUse" color-interpolation-filters="sRGB">
<feFlood flood-opacity="0" result="BackgroundImageFix"/>
<feColorMatrix in="SourceAlpha" type="matrix" values="0 0 0 0 0 0 0 0 0 0 0 0 0 0 0 0 0 0 127 0"/>
<feOffset dy="4"/>
<feGaussianBlur stdDeviation="1.5"/>
<feColorMatrix type="matrix" values="0 0 0 0 0.157986 0 0 0 0 0.161438 0 0 0 0 0.216667 0 0 0 1 0"/>
<feBlend mode="normal" in2="BackgroundImageFix" result="effect1_dropShadow"/>
<feBlend mode="normal" in="SourceGraphic" in2="effect1_dropShadow" result="shape"/>
</filter>
<linearGradient id="paint0_linear" x1="15" y1="0" x2="15" y2="20.0001" gradientUnits="userSpaceOnUse">
<stop stop-color="#FF702F"/>
<stop offset="1" stop-color="#F54428"/>
</linearGradient>
</defs>
</svg>
