<svg width="30" height="29" viewBox="0 0 30 29" fill="none" xmlns="http://www.w3.org/2000/svg">
<g filter="url(#filter0_d)">
<path d="M19.0001 17.0001H23.0001V13.0001H19.0001V17.0001ZM20.0001 14.0001H22.0001V16.0001H20.0001V14.0001ZM20.0001 3H10.0233V2H20.0001V3ZM23.0001 7H19.0001V11H23.0001V7ZM22.0001 10H20.0001V8H22.0001V10ZM7 17.0001H11V13.0001H7V17.0001ZM8 14.0001H10V16.0001H8V14.0001ZM27 2V22H3V2H7.02332V3H4V21H26V3H23.0001V2H27ZM13.0001 17.0001H17.0001V13.0001H13.0001V17.0001ZM14.0001 14.0001H16.0001V16.0001H14.0001V14.0001ZM11 7H7V11H11V7ZM10 10H8V8H10V10ZM17.0001 7H13.0001V11H17.0001V7ZM16.0001 10H14.0001V8H16.0001V10ZM9.00006 4H8.00006V0H9.00006V4ZM22.0001 4H21.0001V0H22.0001V4Z" fill="url(#paint0_linear)"/>
</g>
<defs>
<filter id="filter0_d" x="0" y="0" width="30" height="29" filterUnits="userSpaceOnUse" color-interpolation-filters="sRGB">
<feFlood flood-opacity="0" result="BackgroundImageFix"/>
<feColorMatrix in="SourceAlpha" type="matrix" values="0 0 0 0 0 0 0 0 0 0 0 0 0 0 0 0 0 0 127 0"/>
<feOffset dy="4"/>
<feGaussianBlur stdDeviation="1.5"/>
<feColorMatrix type="matrix" values="0 0 0 0 0.157986 0 0 0 0 0.161438 0 0 0 0 0.216667 0 0 0 1 0"/>
<feBlend mode="normal" in2="BackgroundImageFix" result="effect1_dropShadow"/>
<feBlend mode="normal" in="SourceGraphic" in2="effect1_dropShadow" result="shape"/>
</filter>
<linearGradient id="paint0_linear" x1="15" y1="0" x2="15" y2="22" gradientUnits="userSpaceOnUse">
<stop stop-color="#FF702F"/>
<stop offset="1" stop-color="#F54428"/>
</linearGradient>
</defs>
</svg>
