<svg width="24" height="20" viewBox="0 0 24 20" fill="none" xmlns="http://www.w3.org/2000/svg">
<path d="M13.0001 5H4.00006V4H13.0001V5ZM9.00006 6H4.00006V7H9.00006V6ZM11.0001 8H4.00006V9H11.0001V8ZM8.00006 10H4.00006V11H8.00006V10ZM24 0V16H22V20H2V16H0V0H24ZM21 16H13.7692L11.7692 18L9.00006 17.9999L9 16H3V19H21V16ZM20.5858 7.76917L19.2308 6.41418L10 15.645L10.0001 16.9999L11.355 17L20.5858 7.76917ZM23 1H1V15H2H9.23071L19.2308 4.99994L22.0001 7.76917L14.7692 15H22H23V1Z" fill="#7B7C8F"/>
</svg>
