<svg width="24" height="24" viewBox="0 0 24 24" fill="none" xmlns="http://www.w3.org/2000/svg">
<path d="M23.0077 18.1233H22.3936C21.696 18.1233 21.1298 17.5875 21.1298 16.9272V8.64117C21.1302 3.87567 17.0356 0 12.0016 0C6.96588 0 2.87018 3.87567 2.87018 8.64117V16.9268C2.87018 17.5875 2.30438 18.1229 1.60638 18.1229H0.990662C0.44458 18.1229 0 18.545 0 19.0638C0 19.5797 0.444153 20 0.990662 20H23.0077C23.5558 20 24 19.5793 24 19.0638C24 18.5455 23.5558 18.1233 23.0077 18.1233ZM2.36115 18.9974C3.23944 18.6953 3.87018 17.8812 3.87018 16.9268V8.64117C3.87018 4.4278 7.51788 1 12.0016 1C14.1795 1 16.2267 1.80255 17.7662 3.25977C19.2905 4.70276 20.13 6.61389 20.1298 8.64117V16.9272C20.1298 17.8837 20.7634 18.6993 21.6448 18.9998L2.36115 18.9974ZM14.628 21H15.701C15.0261 22.7712 13.6319 24 11.9987 24C10.3643 24 8.97278 22.7712 8.29871 21H9.37183C9.94238 22.2195 10.9254 23 11.9987 23C13.0731 23 14.057 22.2195 14.628 21Z" fill="#7B7C8F"/>
</svg>
