<svg width="30" height="31" viewBox="0 0 30 31" fill="none" xmlns="http://www.w3.org/2000/svg">
<g filter="url(#filter0_d)">
<path d="M27 14.416V9.58405L24.1648 8.50116C24.0989 8.3288 24.0312 8.15784 23.9561 7.9903L25.1937 5.22302L21.777 1.80634L19.0098 3.04401C18.8422 2.96887 18.6713 2.90106 18.4988 2.83521L17.416 0H12.5841L11.5012 2.83521C11.3289 2.90106 11.158 2.96887 10.9903 3.04401L8.22314 1.80634L4.80646 5.22302L6.04401 7.99017C5.96887 8.15784 5.90106 8.3288 5.83521 8.50122L3 9.58405V14.416L5.83521 15.4988C5.90106 15.6712 5.96893 15.8422 6.04401 16.0098L4.80646 18.7769L8.22314 22.1937L10.9903 20.956C11.1578 21.0312 11.3289 21.0989 11.5013 21.1648L12.5841 24H17.416L18.4988 21.1648C18.6712 21.0989 18.8422 21.0311 19.0098 20.956L21.777 22.1937L25.1937 18.7769L23.9561 16.0098C24.0312 15.8422 24.0989 15.6713 24.1648 15.4988L27 14.416ZM23.0432 16.418L23.9997 18.5566L21.5568 20.9997L19.4181 20.0432L19.0095 19.8604L18.601 20.0434C18.4504 20.1108 18.2968 20.1715 18.142 20.2306L17.7242 20.3902L17.5646 20.808L16.7275 23H13.2726L12.4355 20.808L12.2759 20.3903L11.8583 20.2307C11.7036 20.1716 11.5499 20.111 11.3995 20.0436L10.9908 19.8603L10.582 20.0432L8.44336 20.9997L6.00043 18.5567L6.95691 16.4181L7.13965 16.0095L6.95667 15.601C6.88916 15.4504 6.82855 15.2968 6.76941 15.142L6.6098 14.7242L6.19202 14.5646L4 13.7275V10.2726L6.19202 9.43542L6.60986 9.27582L6.76941 8.85797C6.82849 8.70325 6.88904 8.54974 6.95648 8.39929L7.13971 7.99072L6.95691 7.58191L6.00043 5.4433L8.44336 3.00031L10.582 3.95685L10.9908 4.13971L11.3994 3.95648C11.5499 3.88904 11.7034 3.82849 11.8581 3.76941L12.2759 3.6098L12.4354 3.19202L13.2726 1H16.7275L17.5647 3.19202L17.7242 3.60986L18.1422 3.76941C18.2968 3.82849 18.4503 3.88904 18.6005 3.95642L19.0092 4.13977L19.4181 3.95685L21.5568 3.00031L23.9997 5.4433L23.0432 7.58203L22.8604 7.99072L23.0435 8.39923C23.111 8.54968 23.1715 8.70325 23.2307 8.85803L23.3902 9.27582L23.808 9.43536L26 10.2725V13.7275L23.808 14.5647L23.3902 14.7242L23.2307 15.142C23.1716 15.2967 23.111 15.4503 23.0436 15.6006L22.8604 16.0092L23.0432 16.418ZM15.0001 5C11.134 5 8.00006 8.13403 8.00006 12C8.00006 15.866 11.134 19 15.0001 19C18.866 19 22.0001 15.866 22.0001 12C22.0001 8.13403 18.866 5 15.0001 5ZM15.0001 18C11.6917 18 9.00006 15.3084 9.00006 12C9.00006 8.69159 11.6917 6 15.0001 6C18.3085 6 21.0001 8.69159 21.0001 12C21.0001 15.3084 18.3085 18 15.0001 18ZM15.0001 8C12.7909 8 11.0001 9.79089 11.0001 12C11.0001 14.2092 12.7909 16 15.0001 16C17.2092 16 19.0001 14.2092 19.0001 12C19.0001 9.79089 17.2092 8 15.0001 8ZM15.0001 15C13.3458 15 12.0001 13.6542 12.0001 12C12.0001 10.3458 13.3458 9 15.0001 9C16.6542 9 18.0001 10.3458 18.0001 12C18.0001 13.6542 16.6542 15 15.0001 15Z" fill="url(#paint0_linear)"/>
</g>
<defs>
<filter id="filter0_d" x="0" y="0" width="30" height="31" filterUnits="userSpaceOnUse" color-interpolation-filters="sRGB">
<feFlood flood-opacity="0" result="BackgroundImageFix"/>
<feColorMatrix in="SourceAlpha" type="matrix" values="0 0 0 0 0 0 0 0 0 0 0 0 0 0 0 0 0 0 127 0"/>
<feOffset dy="4"/>
<feGaussianBlur stdDeviation="1.5"/>
<feColorMatrix type="matrix" values="0 0 0 0 0.157986 0 0 0 0 0.161438 0 0 0 0 0.216667 0 0 0 1 0"/>
<feBlend mode="normal" in2="BackgroundImageFix" result="effect1_dropShadow"/>
<feBlend mode="normal" in="SourceGraphic" in2="effect1_dropShadow" result="shape"/>
</filter>
<linearGradient id="paint0_linear" x1="15" y1="0" x2="15" y2="24" gradientUnits="userSpaceOnUse">
<stop stop-color="#FF702F"/>
<stop offset="1" stop-color="#F54428"/>
</linearGradient>
</defs>
</svg>
