<svg width="24" height="20" viewBox="0 0 24 20" fill="none" xmlns="http://www.w3.org/2000/svg">
<path d="M24 0H0V20H4.00006V20.0001H8.00006V20H10.0001V20.0001H14.0001V20H16.0001V20.0001H20.0001V20H24V0ZM7.00006 19H5.00006V15.0001H7.00006V19ZM13.0001 19H11.0001V8.00006H13.0001V19ZM19.0001 19H17.0001V12.0001H19.0001V19ZM23 19H20.0001V11.0001H16.0001V19H14.0001V7.00006H10.0001V19H8.00006V14.0001H4.00006V19H1V1H23V19ZM8.00006 12.0001H4.00006V11.0001H8.00006V12.0001ZM14 5.00006H10V4.00006H14V5.00006ZM20.0001 9H16.0001V8H20.0001V9Z" fill="#7B7C8F"/>
</svg>
