<svg width="30" height="27" viewBox="0 0 30 27" fill="none" xmlns="http://www.w3.org/2000/svg">
<g filter="url(#filter0_d)">
<path d="M27 3H25V0H5V3H3V17H5V20H25V17H27V3ZM6 1H24V3H6V1ZM24 19H6V17H24V19ZM26 16H25H5H4V4H5H25H26V16ZM13 14L18 10L13 6V14ZM14 8.08063L16.3992 10L14 11.9194V8.08063Z" fill="url(#paint0_linear)"/>
</g>
<defs>
<filter id="filter0_d" x="0" y="0" width="30" height="27" filterUnits="userSpaceOnUse" color-interpolation-filters="sRGB">
<feFlood flood-opacity="0" result="BackgroundImageFix"/>
<feColorMatrix in="SourceAlpha" type="matrix" values="0 0 0 0 0 0 0 0 0 0 0 0 0 0 0 0 0 0 127 0"/>
<feOffset dy="4"/>
<feGaussianBlur stdDeviation="1.5"/>
<feColorMatrix type="matrix" values="0 0 0 0 0.157986 0 0 0 0 0.161438 0 0 0 0 0.216667 0 0 0 1 0"/>
<feBlend mode="normal" in2="BackgroundImageFix" result="effect1_dropShadow"/>
<feBlend mode="normal" in="SourceGraphic" in2="effect1_dropShadow" result="shape"/>
</filter>
<linearGradient id="paint0_linear" x1="15" y1="0" x2="15" y2="20" gradientUnits="userSpaceOnUse">
<stop stop-color="#FF702F"/>
<stop offset="1" stop-color="#F54428"/>
</linearGradient>
</defs>
</svg>
