<svg width="24" height="20" viewBox="0 0 24 20" fill="none" xmlns="http://www.w3.org/2000/svg">
<path d="M0 14V15V18H6V15V14V2H0V14ZM5 17H1V15H5V17ZM5 3V14H1V3H5ZM2 6.00006C2 5.44775 2.44769 5.00006 3 5.00006C3.55231 5.00006 4 5.44775 4 6.00006C4 6.55231 3.55231 7.00006 3 7.00006C2.44769 7.00006 2 6.55231 2 6.00006ZM18.0001 2V14V15V18H24.0001V15V14V2H18.0001ZM23.0001 17H19.0001V15H23.0001V17ZM19.0001 14V3H23.0001V14H19.0001ZM22.0001 6.00006C22.0001 6.55231 21.5524 7.00006 21.0001 7.00006C20.4478 7.00006 20.0001 6.55231 20.0001 6.00006C20.0001 5.44775 20.4478 5.00006 21.0001 5.00006C21.5524 5.00006 22.0001 5.44775 22.0001 6.00006ZM8.00006 12L8 13L8.00006 16L8 17L8.00006 20H16.0001V0H8.00006V12ZM9.00006 13H15.0001V16H9.00006V13ZM9.00006 19V17H15.0001V19H9.00006ZM15.0001 1V12H9.00006V1H15.0001ZM11 4C11 3.44775 11.4478 3 12 3C12.5522 3 13 3.44775 13 4C13 4.55231 12.5523 5 12.0001 5C11.4478 5 11 4.55231 11 4Z" fill="#7B7C8F"/>
</svg>
